<?xml version="1.0" encoding="UTF-8"?>
<svg version="1.1" xmlns="http://www.w3.org/2000/svg" width="118" height="59">
<path d="M0 0 C38.94 0 77.88 0 118 0 C118 19.47 118 38.94 118 59 C79.06 59 40.12 59 0 59 C0 39.53 0 20.06 0 0 Z " fill="#CAB9A0" transform="translate(0,0)"/>
<path d="M0 0 C38.94 0 77.88 0 118 0 C118 10.56 118 21.12 118 32 C105.79 32 93.58 32 81 32 C80.505 31.01 80.505 31.01 80 30 C83.63 29.67 87.26 29.34 91 29 C90.7834375 26.8653125 90.7834375 26.8653125 90.5625 24.6875 C90.44068359 23.48673828 90.44068359 23.48673828 90.31640625 22.26171875 C90.04734307 19.83912821 90.04734307 19.83912821 89 17 C88.87218214 14.32605036 88.95608129 11.67904143 89 9 C87.98975014 9.00333092 87.98975014 9.00333092 86.95909119 9.00672913 C79.93472831 9.0288922 72.9103754 9.0439526 65.88598633 9.05493164 C63.26619056 9.0599532 60.64639757 9.0667717 58.02661133 9.07543945 C54.25601511 9.08760036 50.48545603 9.09325018 46.71484375 9.09765625 C44.96445045 9.10539818 44.96445045 9.10539818 43.17869568 9.11329651 C37.67639306 9.11367411 32.41781777 8.98910255 27 8 C27.33 9.010625 27.66 10.02125 28 11.0625 C29.06279378 14.76343438 29.23147961 18.14200649 29 22 C28.67 22.33 28.34 22.66 28 23 C27.95907063 25.33297433 27.95758277 27.66705225 28 30 C30.64 30 33.28 30 36 30 C36.495 28.515 36.495 28.515 37 27 C37.495 28.485 37.495 28.485 38 30 C39.65 30 41.3 30 43 30 C43 25.05 43 20.1 43 15 C43.99 14.67 44.98 14.34 46 14 C45.505 11.525 45.505 11.525 45 9 C48.63 9 52.26 9 56 9 C56 10.98 56 12.96 56 15 C55.34 15 54.68 15 54 15 C54 14.01 54 13.02 54 12 C52.68 12 51.36 12 50 12 C50 13.32 50 14.64 50 16 C50.99 16 51.98 16 53 16 C53 16.99 53 17.98 53 19 C52.01 19.33 51.02 19.66 50 20 C48.79117904 22.00016466 48.79117904 22.00016466 48 24 C50.91634129 24.2502157 50.91634129 24.2502157 54 24 C54.66 23.01 55.32 22.02 56 21 C56 22.65 56 24.3 56 26 C52.04 26 48.08 26 44 26 C44.495 27.98 44.495 27.98 45 30 C49.62 30 54.24 30 59 30 C59.495 30.99 59.495 30.99 60 32 C53.06252123 32.16934641 46.12486654 32.32901679 39.18701172 32.48217773 C36.83019041 32.53532333 34.47341672 32.59062844 32.11669922 32.64819336 C28.71592473 32.73087604 25.31505085 32.80561596 21.9140625 32.87890625 C20.87198639 32.90594131 19.82991028 32.93297638 18.7562561 32.96083069 C17.75597382 32.98092697 16.75569153 33.00102325 15.72509766 33.02172852 C14.42603989 33.05170677 14.42603989 33.05170677 13.10073853 33.08229065 C8.72049143 32.96604306 4.36004339 32.43600434 0 32 C0 21.44 0 10.88 0 0 Z M92 26 C93 28 93 28 93 28 Z " fill="#D6BFA0" transform="translate(0,0)"/>
<path d="M0 0 C9.17286652 -0.63019694 9.17286652 -0.63019694 12.625 2 C13.07875 2.66 13.5325 3.32 14 4 C14.33 2.68 14.66 1.36 15 0 C16.77007714 -0.08114106 18.54122098 -0.13925505 20.3125 -0.1875 C21.29863281 -0.22230469 22.28476562 -0.25710937 23.30078125 -0.29296875 C26 0 26 0 27.85546875 1.51171875 C28.23316406 2.00285156 28.61085938 2.49398437 29 3 C29.33 2.01 29.66 1.02 30 0 C44 0 58 0 72 0 C73.175625 -0.04125 74.35125 -0.0825 75.5625 -0.125 C79 0 79 0 81 2 C81.33 1.34 81.66 0.68 82 0 C85.04386724 -0.08226668 87.07175348 0.02391783 90 1 C90.33 0.67 90.66 0.34 91 0 C93.5 -0.125 93.5 -0.125 96 0 C97.62200515 1.62200515 97.1299075 3.42023031 97.1328125 5.65625 C97.13410156 6.59597656 97.13539062 7.53570312 97.13671875 8.50390625 C97.13285156 9.49261719 97.12898438 10.48132813 97.125 11.5 C97.12886719 12.48871094 97.13273437 13.47742188 97.13671875 14.49609375 C97.13542969 15.43582031 97.13414063 16.37554687 97.1328125 17.34375 C97.13168457 18.21193359 97.13055664 19.08011719 97.12939453 19.97460938 C97 22 97 22 96 23 C93.42588914 23.10222379 90.87933841 23.13943023 88.3046875 23.1328125 C87.50093185 23.13422241 86.69717621 23.13563232 85.86906433 23.13708496 C83.2043335 23.13924486 80.53971911 23.13286655 77.875 23.125 C76.96894012 23.1234491 76.06288025 23.12189819 75.12936401 23.12030029 C61.96683712 23.09396569 48.8058339 22.96765883 35.64630127 22.68060303 C33.92480698 22.64355672 32.20324396 22.60957667 30.48162842 22.57867432 C28.08244333 22.53390536 25.68394921 22.47609153 23.28515625 22.4140625 C22.21614326 22.39672058 22.21614326 22.39672058 21.12553406 22.37902832 C16.22938509 22.22938509 16.22938509 22.22938509 14 20 C13.01 20.66 12.02 21.32 11 22 C8.80859375 22.265625 8.80859375 22.265625 6.4375 22.25 C5.25994141 22.25773437 5.25994141 22.25773437 4.05859375 22.265625 C2 22 2 22 0 20 C-0.1875 17.4375 -0.1875 17.4375 0 15 C0.33 14.67 0.66 14.34 1 14 C1.16666667 10.5 1.16666667 10.5 1 7 C0.67 6.67 0.34 6.34 0 6 C-0.04080783 4.00041636 -0.04254356 1.99954746 0 0 Z " fill="#674A38" transform="translate(11,36)"/>
<path d="M0 0 C14.52 0 29.04 0 44 0 C44 10.56 44 21.12 44 32 C31.79 32 19.58 32 7 32 C6.505 31.01 6.505 31.01 6 30 C9.63 29.67 13.26 29.34 17 29 C16.855625 27.576875 16.71125 26.15375 16.5625 24.6875 C16.48128906 23.88699219 16.40007812 23.08648438 16.31640625 22.26171875 C16.04734307 19.83912821 16.04734307 19.83912821 15 17 C14.87218214 14.32605036 14.95608129 11.67904143 15 9 C14.42228348 8.98969254 13.84456696 8.97938507 13.24934387 8.96876526 C7.2308161 8.86049748 1.21243192 8.74591628 -4.8059082 8.62768555 C-7.05132032 8.58440167 -9.29676396 8.54272199 -11.54223633 8.50268555 C-14.77174373 8.44482443 -18.00109341 8.38117549 -21.23046875 8.31640625 C-22.23272995 8.29969376 -23.23499115 8.28298126 -24.2676239 8.26576233 C-25.67852043 8.2358445 -25.67852043 8.2358445 -27.11791992 8.20532227 C-27.94176682 8.18977798 -28.76561371 8.1742337 -29.61442566 8.15821838 C-32.14604911 7.99031359 -34.52539526 7.54925652 -37 7 C-36.01 6.34 -35.02 5.68 -34 5 C-33.01 5.33 -32.02 5.66 -31 6 C-31 5.34 -31 4.68 -31 4 C-11.53 4 7.94 4 28 4 C28 3.34 28 2.68 28 2 C18.76 2 9.52 2 0 2 C0 1.34 0 0.68 0 0 Z M18 26 C19 28 19 28 19 28 Z " fill="#DDC4A5" transform="translate(74,0)"/>
<path d="M0 0 C38.94 0 77.88 0 118 0 C118 8.25 118 16.5 118 25 C114.37 25 110.74 25 107 25 C107 17.74 107 10.48 107 3 C105.35 2.67 103.7 2.34 102 2 C102 4.31 102 6.62 102 9 C101.67 9 101.34 9 101 9 C100.505 6.525 100.505 6.525 100 4 C97.69 3.34 95.38 2.68 93 2 C93 5.3 93 8.6 93 12 C92.67 12 92.34 12 92 12 C91.77213542 9.94921875 91.54427083 7.8984375 91.31640625 5.84765625 C91.18113386 3.98859771 91.18113386 3.98859771 90 3 C87.66706666 2.95679753 85.3329866 2.95977609 83 3 C82.01 3 81.02 3 80 3 C79.09894531 3.01160156 78.19789062 3.02320313 77.26953125 3.03515625 C65.16203566 3.13092175 53.09172507 2.56485136 41 2 C41 3.65 41 5.3 41 7 C40.566875 6.360625 40.13375 5.72125 39.6875 5.0625 C35.55348417 1.8898832 31.08398178 2.17530972 26 2 C26 3.65 26 5.3 26 7 C25.38125 6.360625 24.7625 5.72125 24.125 5.0625 C19.86667102 2.25200287 16.00598862 2.19440733 11 2 C11.33 3.010625 11.66 4.02125 12 5.0625 C13.06279378 8.76343438 13.23147961 12.14200649 13 16 C12.67 16.33 12.34 16.66 12 17 C11.83333333 19.5 11.83333333 19.5 12 22 C13.57027317 23.57027317 15.14269947 23.16974386 17.3125 23.1875 C18.09238281 23.20167969 18.87226563 23.21585938 19.67578125 23.23046875 C22.2032668 22.97984413 23.81718031 22.26373772 26 21 C26.33 21.66 26.66 22.32 27 23 C46.305 23.495 46.305 23.495 66 24 C66 24.33 66 24.66 66 25 C44.22 25 22.44 25 0 25 C0 16.75 0 8.5 0 0 Z " fill="#DDC7AB" transform="translate(0,34)"/>
<path d="M0 0 C17.16 0 34.32 0 52 0 C52.495 3.465 52.495 3.465 53 7 C52.34 7 51.68 7 51 7 C50.01 11.95 49.02 16.9 48 22 C46.35 21.67 44.7 21.34 43 21 C43 20.34 43 19.68 43 19 C43.99 19 44.98 19 46 19 C46.18175781 18.03900391 46.18175781 18.03900391 46.3671875 17.05859375 C47.35679227 11.95071067 48.48510951 6.97749731 50 2 C48.68 1.67 47.36 1.34 46 1 C46.04125 1.94875 46.0825 2.8975 46.125 3.875 C46 7 46 7 44 9 C43.20046862 5.71303767 42.90341064 4.28976808 44 1 C42.35 1 40.7 1 39 1 C39.20625 1.7425 39.4125 2.485 39.625 3.25 C40.04408751 6.32330841 39.61949011 7.42786866 38 10 C37 9 37 9 36.90234375 7.15234375 C36.93489583 5.1015625 36.96744792 3.05078125 37 1 C35.35 1 33.7 1 32 1 C32.495 3.475 32.495 3.475 33 6 C32.34 6 31.68 6 31 6 C31 6.99 31 7.98 31 9 C30.01 9 29.02 9 28 9 C28.66 9.495 29.32 9.99 30 10.5 C32.8827217 14.10340212 32.30200997 16.46985042 32 21 C27.38 21 22.76 21 18 21 C17.67 20.01 17.34 19.02 17 18 C20.96 18 24.92 18 29 18 C26.04335481 16.5216774 23.25770263 16.93967217 20 17 C20.99 15.02 21.98 13.04 23 11 C23.99 11 24.98 11 26 11 C26 10.01 26 9.02 26 8 C25.01 8 24.02 8 23 8 C23 6.68 23 5.36 23 4 C24.32 4 25.64 4 27 4 C27 4.99 27 5.98 27 7 C27.66 7 28.32 7 29 7 C29 5.02 29 3.04 29 1 C25.37 1 21.74 1 18 1 C18.33 2.65 18.66 4.3 19 6 C18.01 6.495 18.01 6.495 17 7 C16.68758629 9.54941373 16.48696579 12.00361513 16.375 14.5625 C16.33632813 15.27341797 16.29765625 15.98433594 16.2578125 16.71679688 C16.16328217 18.47742425 16.08054183 20.23867728 16 22 C14.35 22 12.7 22 11 22 C10.67 21.34 10.34 20.68 10 20 C9.67 20.66 9.34 21.32 9 22 C6.36 22 3.72 22 1 22 C0.61936779 19.6739143 0.28730055 17.33944736 0 15 C0.33 14.67 0.66 14.34 1 14 C1.16666667 10.5 1.16666667 10.5 1 7 C0.67 6.67 0.34 6.34 0 6 C0 4.02 0 2.04 0 0 Z " fill="#624433" transform="translate(27,8)"/>
<path d="M0 0 C2.5625 0.1875 2.5625 0.1875 5.5625 1.1875 C5.8925 0.8575 6.2225 0.5275 6.5625 0.1875 C9.0625 0.0625 9.0625 0.0625 11.5625 0.1875 C13.18450515 1.80950515 12.6924075 3.60773031 12.6953125 5.84375 C12.69724609 7.25333984 12.69724609 7.25333984 12.69921875 8.69140625 C12.69535156 9.68011719 12.69148438 10.66882813 12.6875 11.6875 C12.69330078 13.17056641 12.69330078 13.17056641 12.69921875 14.68359375 C12.69792969 15.62332031 12.69664063 16.56304687 12.6953125 17.53125 C12.69418457 18.39943359 12.69305664 19.26761719 12.69189453 20.16210938 C12.5625 22.1875 12.5625 22.1875 11.5625 23.1875 C8.53272196 23.27621273 5.52582978 23.3026935 2.49609375 23.28515625 C1.58747086 23.2837413 0.67884796 23.28232635 -0.25730896 23.28086853 C-3.17157221 23.27525193 -6.08575981 23.26269665 -9 23.25 C-10.97070202 23.24498714 -12.94140524 23.24042386 -14.91210938 23.23632812 C-19.75393559 23.22527711 -24.59570495 23.20800138 -29.4375 23.1875 C-29.4375 22.5275 -29.4375 21.8675 -29.4375 21.1875 C-26.7975 21.1875 -24.1575 21.1875 -21.4375 21.1875 C-21.31375 20.115 -21.19 19.0425 -21.0625 17.9375 C-20.54106064 14.80886385 -20.03661746 12.85269576 -18.4375 10.1875 C-16.7875 10.1875 -15.1375 10.1875 -13.4375 10.1875 C-13.4375 13.8175 -13.4375 17.4475 -13.4375 21.1875 C-9.43495544 21.27931134 -9.43495544 21.27931134 -5.4375 21.1875 C-3.94006881 19.69006881 -4.10547307 18.19925761 -3.875 16.125 C-3.730625 14.825625 -3.58625 13.52625 -3.4375 12.1875 C-4.0975 12.1875 -4.7575 12.1875 -5.4375 12.1875 C-5.4375 14.1675 -5.4375 16.1475 -5.4375 18.1875 C-8.14629335 19.54189668 -10.44683268 19.25251451 -13.4375 19.1875 C-13.4375 17.2075 -13.4375 15.2275 -13.4375 13.1875 C-11.4375 13.1875 -11.4375 13.1875 -9.8125 14.6875 C-9.35875 15.1825 -8.905 15.6775 -8.4375 16.1875 C-9.95956009 13.55848712 -11.28115964 11.34384036 -13.4375 9.1875 C-13.625 6.125 -13.625 6.125 -13.4375 3.1875 C-12.4375 2.1875 -12.4375 2.1875 -9.375 2.125 C-7.9209375 2.1559375 -7.9209375 2.1559375 -6.4375 2.1875 C-6.4375 3.8375 -6.4375 5.4875 -6.4375 7.1875 C-7.0975 7.1875 -7.7575 7.1875 -8.4375 7.1875 C-8.4375 6.5275 -8.4375 5.8675 -8.4375 5.1875 C-9.0975 5.1875 -9.7575 5.1875 -10.4375 5.1875 C-9.12549596 6.54182675 -7.79118596 7.87483482 -6.4375 9.1875 C-6.1075 9.1875 -5.7775 9.1875 -5.4375 9.1875 C-5.31375 8.07375 -5.19 6.96 -5.0625 5.8125 C-4.11491935 0.31653226 -4.11491935 0.31653226 0 0 Z " fill="#DBC3AC" transform="translate(95.4375,35.8125)"/>
<path d="M0 0 C9.17286652 -0.63019694 9.17286652 -0.63019694 12.625 2 C13.07875 2.66 13.5325 3.32 14 4 C14.33 2.68 14.66 1.36 15 0 C16.76949095 -0.10815225 18.54087487 -0.18566083 20.3125 -0.25 C21.29863281 -0.29640625 22.28476562 -0.3428125 23.30078125 -0.390625 C26 0 26 0 27.9140625 1.73046875 C29.26459124 4.55297665 28.98408605 5.61840619 28.0625 8.5625 C27.30737193 10.82249706 27.30737193 10.82249706 27 13 C27.99 14.485 27.99 14.485 29 16 C29 16.99 29 17.98 29 19 C27.68 19 26.36 19 25 19 C23.5393715 16.35261084 23 15.10551666 23 12 C22.34 12 21.68 12 21 12 C21 13.32 21 14.64 21 16 C21.66 16 22.32 16 23 16 C23 16.99 23 17.98 23 19 C20.69 19 18.38 19 16 19 C15.67 19.66 15.34 20.32 15 21 C14.34 21 13.68 21 13 21 C12.34 21.33 11.68 21.66 11 22 C9.50350638 22.12005453 8.00125207 22.17531451 6.5 22.1875 C5.7059375 22.20167969 4.911875 22.21585938 4.09375 22.23046875 C2 22 2 22 0 20 C-0.1875 17.4375 -0.1875 17.4375 0 15 C0.33 14.67 0.66 14.34 1 14 C1.16666667 10.5 1.16666667 10.5 1 7 C0.67 6.67 0.34 6.34 0 6 C-0.04080783 4.00041636 -0.04254356 1.99954746 0 0 Z " fill="#927862" transform="translate(11,36)"/>
<path d="M0 0 C7.92 0 15.84 0 24 0 C23.67 2.31 23.34 4.62 23 7 C22.01 7 21.02 7 20 7 C20 6.34 20 5.68 20 5 C19.01 5 18.02 5 17 5 C17 5.99 17 6.98 17 8 C17.99 8 18.98 8 20 8 C20 9.32 20 10.64 20 12 C19.01 12 18.02 12 17 12 C17.33 12.66 17.66 13.32 18 14 C18.639375 13.814375 19.27875 13.62875 19.9375 13.4375 C20.618125 13.293125 21.29875 13.14875 22 13 C23 14 23 14 23 19 C19.04 19 15.08 19 11 19 C11 18.01 11 17.02 11 16 C10.34 16 9.68 16 9 16 C8.91903197 14.54257537 8.86082226 13.08387193 8.8125 11.625 C8.77769531 10.81289063 8.74289063 10.00078125 8.70703125 9.1640625 C8.80371094 8.44992188 8.90039062 7.73578125 9 7 C9.99 6.34 10.98 5.68 12 5 C11.67 4.01 11.34 3.02 11 2 C10.01 1.67 9.02 1.34 8 1 C8 2.32 8 3.64 8 5 C7.34 5 6.68 5 6 5 C6 8.3 6 11.6 6 15 C5.67 15 5.34 15 5 15 C5 12.03 5 9.06 5 6 C4.34 6 3.68 6 3 6 C3 5.34 3 4.68 3 4 C2.34 4 1.68 4 1 4 C1.33 4.99 1.66 5.98 2 7 C2.12781786 9.67394964 2.04391871 12.32095857 2 15 C0.68 14.67 -0.64 14.34 -2 14 C-1.34 9.38 -0.68 4.76 0 0 Z " fill="#877059" transform="translate(41,36)"/>
<path d="M0 0 C1.32 0.33 2.64 0.66 4 1 C4.33 2.65 4.66 4.3 5 6 C4.01 6 3.02 6 2 6 C1.67 8.97 1.34 11.94 1 15 C1.66 15 2.32 15 3 15 C3 15.99 3 16.98 3 18 C7.29 18 11.58 18 16 18 C16.495 16.515 16.495 16.515 17 15 C17 16.98 17 18.96 17 21 C4.13 21 -8.74 21 -22 21 C-22 20.01 -22 19.02 -22 18 C-19.69 18 -17.38 18 -15 18 C-15 17.01 -15 16.02 -15 15 C-15.66 15 -16.32 15 -17 15 C-17 13.68 -17 12.36 -17 11 C-16.34 11 -15.68 11 -15 11 C-14.34 13.31 -13.68 15.62 -13 18 C-11.68 18 -10.36 18 -9 18 C-9.53625 17.195625 -10.0725 16.39125 -10.625 15.5625 C-12.45725994 10.81528105 -11.46242594 7.73447248 -10 3 C-9.67 3 -9.34 3 -9 3 C-9 6.3 -9 9.6 -9 13 C-8.01 13.33 -7.02 13.66 -6 14 C-6.33 10.37 -6.66 6.74 -7 3 C-6.34 3 -5.68 3 -5 3 C-5 3.66 -5 4.32 -5 5 C-3.35 4.67 -1.7 4.34 0 4 C0 2.68 0 1.36 0 0 Z " fill="#533324" transform="translate(49,37)"/>
<path d="M0 0 C4.95 0.33 9.9 0.66 15 1 C14.67 6.94 14.34 12.88 14 19 C12.68 19.33 11.36 19.66 10 20 C9.67 20.66 9.34 21.32 9 22 C6.36 22 3.72 22 1 22 C0.61936779 19.6739143 0.28730055 17.33944736 0 15 C0.33 14.67 0.66 14.34 1 14 C1.16666667 10.5 1.16666667 10.5 1 7 C0.67 6.67 0.34 6.34 0 6 C0 4.02 0 2.04 0 0 Z " fill="#96806A" transform="translate(27,8)"/>
<path d="M0 0 C1.65 0 3.3 0 5 0 C5.33 2.64 5.66 5.28 6 8 C6.33 5.36 6.66 2.72 7 0 C8.65 0 10.3 0 12 0 C11.979375 0.804375 11.95875 1.60875 11.9375 2.4375 C11.70366379 4.93354885 11.70366379 4.93354885 13 6 C13.33 4.02 13.66 2.04 14 0 C16.475 0.495 16.475 0.495 19 1 C18.27312238 3.72336814 17.53686433 6.44351823 16.78515625 9.16015625 C16.19622836 11.29025863 15.62493435 13.42524947 15.0625 15.5625 C14 18 14 18 12.1875 19.375 C9.69940916 20.0858831 7.57533152 20.14307397 5 20 C2.75345918 15.21389129 1.73832398 11.27374275 1 6 C0.34 5.67 -0.32 5.34 -1 5 C-0.34 5 0.32 5 1 5 C0.67 3.35 0.34 1.7 0 0 Z " fill="#948069" transform="translate(59,9)"/>
<path d="M0 0 C8.9039932 -0.61172472 8.9039932 -0.61172472 12.6875 1.5 C14.30216259 4.57554778 13.98744451 6.6750475 13.35546875 10.03515625 C12.90744354 12.13891256 12.90744354 12.13891256 13.0625 14.875 C13 17 13 17 11 19 C8.3984375 19.4140625 8.3984375 19.4140625 5.375 19.625 C4.37210938 19.69976562 3.36921875 19.77453125 2.3359375 19.8515625 C1.17964844 19.92503906 1.17964844 19.92503906 0 20 C-0.042721 18.33388095 -0.04063832 16.66617115 0 15 C0.33 14.67 0.66 14.34 1 14 C1.16666667 10.5 1.16666667 10.5 1 7 C0.67 6.67 0.34 6.34 0 6 C-0.04080783 4.00041636 -0.04254356 1.99954746 0 0 Z " fill="#9C8771" transform="translate(11,36)"/>
<path d="M0 0 C0.69933655 -0.00350464 1.3986731 -0.00700928 2.11920166 -0.01062012 C4.43633888 -0.01943969 6.75317205 -0.01358763 9.0703125 -0.00683594 C10.67692117 -0.00818253 12.28352945 -0.01012301 13.89013672 -0.01263428 C17.25947952 -0.01558584 20.62871637 -0.01128691 23.99804688 -0.00195312 C28.32270744 0.00944148 32.64711979 0.00288218 36.97177124 -0.00909805 C40.2899768 -0.01631581 43.60812325 -0.01402912 46.92633057 -0.00884247 C48.5211795 -0.00750574 50.11603375 -0.00915451 51.71087646 -0.01380157 C53.93760448 -0.0188655 56.16392726 -0.01115882 58.390625 0 C60.29352295 0.00238678 60.29352295 0.00238678 62.23486328 0.00482178 C65.1953125 0.25878906 65.1953125 0.25878906 67.1953125 2.25878906 C66.5353125 4.23878906 65.8753125 6.21878906 65.1953125 8.25878906 C64.9890625 7.64003906 64.7828125 7.02128906 64.5703125 6.38378906 C62.64755362 3.41225261 60.52936723 3.12854247 57.1953125 2.25878906 C57.1953125 4.56878906 57.1953125 6.87878906 57.1953125 9.25878906 C56.8653125 9.25878906 56.5353125 9.25878906 56.1953125 9.25878906 C55.7003125 6.78378906 55.7003125 6.78378906 55.1953125 4.25878906 C52.8853125 3.59878906 50.5753125 2.93878906 48.1953125 2.25878906 C48.1953125 5.55878906 48.1953125 8.85878906 48.1953125 12.25878906 C47.8653125 12.25878906 47.5353125 12.25878906 47.1953125 12.25878906 C46.96744792 10.20800781 46.73958333 8.15722656 46.51171875 6.10644531 C46.37644636 4.24738678 46.37644636 4.24738678 45.1953125 3.25878906 C42.86237916 3.21558659 40.5282991 3.21856516 38.1953125 3.25878906 C37.2053125 3.25878906 36.2153125 3.25878906 35.1953125 3.25878906 C34.29425781 3.27039062 33.39320312 3.28199219 32.46484375 3.29394531 C20.35734816 3.38971081 8.28703757 2.82364043 -3.8046875 2.25878906 C-3.8046875 3.90878906 -3.8046875 5.55878906 -3.8046875 7.25878906 C-5.4546875 5.60878906 -7.1046875 3.95878906 -8.8046875 2.25878906 C-5.94784144 -0.598057 -4.00113829 0.00501857 0 0 Z " fill="#E2CDB6" transform="translate(44.8046875,33.7412109375)"/>
<path d="M0 0 C1 1 1 1 1.09765625 2.84765625 C1.06510417 4.8984375 1.03255208 6.94921875 1 9 C0.01 9.495 0.01 9.495 -1 10 C-3 8.625 -3 8.625 -5 7 C-5 6.34 -5 5.68 -5 5 C-4.34 5 -3.68 5 -3 5 C-3 5.66 -3 6.32 -3 7 C-2.34 7 -1.68 7 -1 7 C-1 5.35 -1 3.7 -1 2 C-2.98 2.33 -4.96 2.66 -7 3 C-7.33448259 5.832168 -7.33448259 5.832168 -7 9 C-5.0624994 11.18777466 -5.0624994 11.18777466 -3 13 C-3 13.99 -3 14.98 -3 16 C-3.99 15.67 -4.98 15.34 -6 15 C-6 14.34 -6 13.68 -6 13 C-6.66 13 -7.32 13 -8 13 C-8 14.98 -8 16.96 -8 19 C-4.04 18.505 -4.04 18.505 0 18 C0 16.02 0 14.04 0 12 C0.66 12 1.32 12 2 12 C2.1953125 18.0546875 2.1953125 18.0546875 2 20 C0 22 0 22 -1.91015625 22.23046875 C-7.88888889 22.11111111 -7.88888889 22.11111111 -9 21 C-9.09823996 19.52351124 -9.12973519 18.04224583 -9.125 16.5625 C-9.12886719 15.35787109 -9.12886719 15.35787109 -9.1328125 14.12890625 C-9 12 -9 12 -8 10 C-9.65 10 -11.3 10 -13 10 C-13.103125 10.639375 -13.20625 11.27875 -13.3125 11.9375 C-13.539375 12.618125 -13.76625 13.29875 -14 14 C-14.99 14.33 -15.98 14.66 -17 15 C-17 14.01 -17 13.02 -17 12 C-16.34 12 -15.68 12 -15 12 C-15 10.68 -15 9.36 -15 8 C-15.99 8 -16.98 8 -18 8 C-18 7.01 -18 6.02 -18 5 C-16.68 5 -15.36 5 -14 5 C-14 5.66 -14 6.32 -14 7 C-13.01 7 -12.02 7 -11 7 C-11 5.02 -11 3.04 -11 1 C-7.32307787 -0.17661508 -3.8361222 -0.14475933 0 0 Z " fill="#715843" transform="translate(90,36)"/>
<path d="M0 0 C1.93166016 0.01740234 1.93166016 0.01740234 3.90234375 0.03515625 C5.19269531 0.04417969 6.48304687 0.05320313 7.8125 0.0625 C8.81152344 0.07410156 9.81054688 0.08570313 10.83984375 0.09765625 C10.50984375 2.40765625 10.17984375 4.71765625 9.83984375 7.09765625 C8.84984375 7.09765625 7.85984375 7.09765625 6.83984375 7.09765625 C6.83984375 6.43765625 6.83984375 5.77765625 6.83984375 5.09765625 C5.51984375 5.09765625 4.19984375 5.09765625 2.83984375 5.09765625 C2.83984375 6.08765625 2.83984375 7.07765625 2.83984375 8.09765625 C3.82984375 8.09765625 4.81984375 8.09765625 5.83984375 8.09765625 C5.83984375 9.08765625 5.83984375 10.07765625 5.83984375 11.09765625 C4.84984375 11.09765625 3.85984375 11.09765625 2.83984375 11.09765625 C2.83984375 12.74765625 2.83984375 14.39765625 2.83984375 16.09765625 C3.49984375 16.09765625 4.15984375 16.09765625 4.83984375 16.09765625 C4.83984375 17.08765625 4.83984375 18.07765625 4.83984375 19.09765625 C2.52984375 19.09765625 0.21984375 19.09765625 -2.16015625 19.09765625 C-2.16015625 18.10765625 -2.16015625 17.11765625 -2.16015625 16.09765625 C-1.50015625 16.09765625 -0.84015625 16.09765625 -0.16015625 16.09765625 C-0.16015625 12.46765625 -0.16015625 8.83765625 -0.16015625 5.09765625 C-0.82015625 5.09765625 -1.48015625 5.09765625 -2.16015625 5.09765625 C-2.16015625 4.10765625 -2.16015625 3.11765625 -2.16015625 2.09765625 C-2.82015625 1.76765625 -3.48015625 1.43765625 -4.16015625 1.09765625 C-3.16015625 0.09765625 -3.16015625 0.09765625 0 0 Z " fill="#896F5A" transform="translate(69.16015625,35.90234375)"/>
<path d="M0 0 C1.66611905 -0.042721 3.33382885 -0.04063832 5 0 C6 1 6 1 6.11352539 3.04125977 C6.10828857 3.91580811 6.10305176 4.79035645 6.09765625 5.69140625 C6.09443359 6.63564453 6.09121094 7.57988281 6.08789062 8.55273438 C6.07951172 9.54595703 6.07113281 10.53917969 6.0625 11.5625 C6.05798828 12.55958984 6.05347656 13.55667969 6.04882812 14.58398438 C6.03700007 17.05604849 6.02051849 19.52799518 6 22 C4.33388095 22.042721 2.66617115 22.04063832 1 22 C0 21 0 21 -0.11352539 18.95874023 C-0.10828857 18.08419189 -0.10305176 17.20964355 -0.09765625 16.30859375 C-0.09443359 15.36435547 -0.09121094 14.42011719 -0.08789062 13.44726562 C-0.07951172 12.45404297 -0.07113281 11.46082031 -0.0625 10.4375 C-0.05798828 9.44041016 -0.05347656 8.44332031 -0.04882812 7.41601562 C-0.03700007 4.94395151 -0.02051849 2.47200482 0 0 Z " fill="#957D69" transform="translate(102,36)"/>
<path d="M0 0 C1.64574566 -0.02688151 3.29161413 -0.04634123 4.9375 -0.0625 C5.85402344 -0.07410156 6.77054688 -0.08570313 7.71484375 -0.09765625 C10 0 10 0 11 1 C11.03165882 3.52366033 10.93175288 6.03270105 10.83984375 8.5546875 C10.81272 11.25981011 10.81272 11.25981011 13 14 C13 14.99 13 15.98 13 17 C11.68 17 10.36 17 9 17 C7.5393715 14.35261084 7 13.10551666 7 10 C6.34 10 5.68 10 5 10 C5 11.32 5 12.64 5 14 C5.66 14 6.32 14 7 14 C7 14.99 7 15.98 7 17 C4.69 17 2.38 17 0 17 C-0.33 17.66 -0.66 18.32 -1 19 C-1.33 18.01 -1.66 17.02 -2 16 C-1.67 15.34 -1.34 14.68 -1 14 C-0.01 14 0.98 14 2 14 C2.0825 13.236875 2.165 12.47375 2.25 11.6875 C3.15933329 8.42905571 4.32197349 7.90053495 7 6 C7 5.01 7 4.02 7 3 C6.01 2.67 5.02 2.34 4 2 C4 2.99 4 3.98 4 5 C3.34 5 2.68 5 2 5 C1.34 3.35 0.68 1.7 0 0 Z " fill="#98856F" transform="translate(27,38)"/>
<path d="M0 0 C3.63 0 7.26 0 11 0 C11 1.98 11 3.96 11 6 C10.34 6 9.68 6 9 6 C9 5.01 9 4.02 9 3 C7.68 3 6.36 3 5 3 C5 4.32 5 5.64 5 7 C5.99 7 6.98 7 8 7 C8 7.99 8 8.98 8 10 C7.01 10.33 6.02 10.66 5 11 C3.79117904 13.00016466 3.79117904 13.00016466 3 15 C5.91634129 15.2502157 5.91634129 15.2502157 9 15 C9.66 14.01 10.32 13.02 11 12 C11 13.65 11 15.3 11 17 C7.04 17 3.08 17 -1 17 C-1 13.04 -1 9.08 -1 5 C-0.34 5 0.32 5 1 5 C0.67 3.35 0.34 1.7 0 0 Z " fill="#907761" transform="translate(45,9)"/>
<path d="M0 0 C0.33 0 0.66 0 1 0 C1.19412181 1.47831221 1.38012131 2.95769316 1.5625 4.4375 C1.66691406 5.26121094 1.77132812 6.08492187 1.87890625 6.93359375 C1.91886719 7.61550781 1.95882812 8.29742187 2 9 C-0.63523138 11.63523138 -5.29171534 10.62917153 -9 11 C9.315 11.495 9.315 11.495 28 12 C28 12.66 28 13.32 28 14 C13.48 14 -1.04 14 -16 14 C-16 13.34 -16 12.68 -16 12 C-14.35 12 -12.7 12 -11 12 C-10.67 10.68 -10.34 9.36 -10 8 C-7.03 8 -4.06 8 -1 8 C-0.67 5.36 -0.34 2.72 0 0 Z " fill="#C4B299" transform="translate(90,20)"/>
<path d="M0 0 C2.475 0.495 2.475 0.495 5 1 C5.33 7.93 5.66 14.86 6 22 C4.35 22 2.7 22 1 22 C0 21 0 21 -0.11352539 18.95874023 C-0.10828857 18.08419189 -0.10305176 17.20964355 -0.09765625 16.30859375 C-0.09443359 15.36435547 -0.09121094 14.42011719 -0.08789062 13.44726562 C-0.07951172 12.45404297 -0.07113281 11.46082031 -0.0625 10.4375 C-0.05798828 9.44041016 -0.05347656 8.44332031 -0.04882812 7.41601562 C-0.03700007 4.94395151 -0.02051849 2.47200482 0 0 Z " fill="#967E69" transform="translate(94,36)"/>
<path d="M0 0 C1.65 0.33 3.3 0.66 5 1 C5.02888514 4.14581423 5.04675923 7.29159469 5.0625 10.4375 C5.07087891 11.33533203 5.07925781 12.23316406 5.08789062 13.15820312 C5.09111328 14.01220703 5.09433594 14.86621094 5.09765625 15.74609375 C5.10289307 16.53685303 5.10812988 17.3276123 5.11352539 18.14233398 C5 20 5 20 4 21 C2.50261876 21.0979057 1.00057108 21.12974864 -0.5 21.125 C-1.3146875 21.12757812 -2.129375 21.13015625 -2.96875 21.1328125 C-5 21 -5 21 -6 20 C-6.14115161 17.32941149 -6.04247107 14.67567762 -6 12 C-5.34 12 -4.68 12 -4 12 C-4.33 10.68 -4.66 9.36 -5 8 C-2.5 9.8125 -2.5 9.8125 0 12 C0 12.99 0 13.98 0 15 C-0.99 14.67 -1.98 14.34 -3 14 C-3.33 15.32 -3.66 16.64 -4 18 C-1.69 18 0.62 18 3 18 C2.78886595 12.29481315 2.78886595 12.29481315 -0.0625 7.625 C-0.701875 7.08875 -1.34125 6.5525 -2 6 C-2 5.34 -2 4.68 -2 4 C-1.34 4 -0.68 4 0 4 C0 4.66 0 5.32 0 6 C0.99 6 1.98 6 3 6 C3 4.35 3 2.7 3 1 C2.01 0.67 1.02 0.34 0 0 Z " fill="#5A3F2B" transform="translate(85,8)"/>
<path d="M0 0 C1.4540625 0.0309375 1.4540625 0.0309375 2.9375 0.0625 C2.9375 1.7125 2.9375 3.3625 2.9375 5.0625 C2.2775 5.0625 1.6175 5.0625 0.9375 5.0625 C0.9375 4.4025 0.9375 3.7425 0.9375 3.0625 C0.2775 3.0625 -0.3825 3.0625 -1.0625 3.0625 C0.24950404 4.41682675 1.58381404 5.74983482 2.9375 7.0625 C3.2675 7.0625 3.5975 7.0625 3.9375 7.0625 C4.2675 4.7525 4.5975 2.4425 4.9375 0.0625 C5.2675 0.0625 5.5975 0.0625 5.9375 0.0625 C6.14362487 5.83399626 5.68201341 10.53820753 3.9375 16.0625 C1.22870665 17.41689668 -1.07183268 17.12751451 -4.0625 17.0625 C-4.0625 15.0825 -4.0625 13.1025 -4.0625 11.0625 C-2.0625 11.0625 -2.0625 11.0625 -0.4375 12.5625 C0.01625 13.0575 0.47 13.5525 0.9375 14.0625 C-0.58456009 11.43348712 -1.90615964 9.21884036 -4.0625 7.0625 C-4.25 4 -4.25 4 -4.0625 1.0625 C-3.0625 0.0625 -3.0625 0.0625 0 0 Z " fill="#917963" transform="translate(86.0625,37.9375)"/>
<path d="M0 0 C0.66 0 1.32 0 2 0 C2 4.95 2 9.9 2 15 C6.62 15 11.24 15 16 15 C16.495 15.99 16.495 15.99 17 17 C5.45 17 -6.1 17 -18 17 C-18.95904856 13.16380575 -18.91892116 11.67568464 -18 8 C-17.67 8 -17.34 8 -17 8 C-17 10.31 -17 12.62 -17 15 C-13.7 15 -10.4 15 -7 15 C-6.67 14.01 -6.34 13.02 -6 12 C-5.67 12.99 -5.34 13.98 -5 15 C-3.35 15 -1.7 15 0 15 C0 10.05 0 5.1 0 0 Z " fill="#E3CBB1" transform="translate(43,15)"/>
<path d="M0 0 C0 1.65 0 3.3 0 5 C-0.99 5 -1.98 5 -3 5 C-3 4.34 -3 3.68 -3 3 C-3.66 3 -4.32 3 -5 3 C-4.175 3.825 -3.35 4.65 -2.5 5.5 C-0.2385682 8.16275632 0.34355513 9.88440321 0.3125 13.375 C0.1578125 15.169375 0.1578125 15.169375 0 17 C-2.31 17 -4.62 17 -7 17 C-7 15.35 -7 13.7 -7 12 C-5.68 12.66 -4.36 13.32 -3 14 C-4.87949705 10.42895561 -6.17053157 8.45255699 -10 7 C-9.34 6.67 -8.68 6.34 -8 6 C-8.33 4.02 -8.66 2.04 -9 0 C-5.93109813 -1.53445094 -3.29905734 -0.54984289 0 0 Z " fill="#99836F" transform="translate(88,9)"/>
<path d="M0 0 C0.84087158 -0.00064453 1.68174316 -0.00128906 2.5480957 -0.00195312 C6.04486187 0.02913238 8.71372817 0.07124272 12.0625 1.1875 C12.0625 1.8475 12.0625 2.5075 12.0625 3.1875 C7.6075 3.6825 7.6075 3.6825 3.0625 4.1875 C3.0625 7.1575 3.0625 10.1275 3.0625 13.1875 C2.7325 13.1875 2.4025 13.1875 2.0625 13.1875 C1.918125 12.053125 1.77375 10.91875 1.625 9.75 C1.45078522 6.37972799 1.45078522 6.37972799 0.0625 5.1875 C-1.60352403 5.14122155 -3.27126361 5.14963099 -4.9375 5.1875 C-6.60373639 5.22536901 -8.27147597 5.23377845 -9.9375 5.1875 C-10.2675 4.8575 -10.5975 4.5275 -10.9375 4.1875 C-12.45219448 3.95557135 -13.97504562 3.77534762 -15.5 3.625 C-16.32628906 3.54121094 -17.15257813 3.45742187 -18.00390625 3.37109375 C-18.64199219 3.31050781 -19.28007813 3.24992188 -19.9375 3.1875 C-19.9375 2.8575 -19.9375 2.5275 -19.9375 2.1875 C-13.21986598 0.42549763 -6.9081217 -0.00521909 0 0 Z " fill="#D9C3A7" transform="translate(88.9375,3.8125)"/>
<path d="M0 0 C1.32 0.33 2.64 0.66 4 1 C4.33 2.65 4.66 4.3 5 6 C4.01 6 3.02 6 2 6 C1.67 9.96 1.34 13.92 1 18 C-1.64 18 -4.28 18 -7 18 C-7 17.01 -7 16.02 -7 15 C-6.34 15 -5.68 15 -5 15 C-5 11.7 -5 8.4 -5 5 C-3.35 4.67 -1.7 4.34 0 4 C0 2.68 0 1.36 0 0 Z " fill="#87745E" transform="translate(49,37)"/>
<path d="M0 0 C4.95 0.33 9.9 0.66 15 1 C14.67 6.94 14.34 12.88 14 19 C13.67 19 13.34 19 13 19 C12.67 14.05 12.34 9.1 12 4 C11.67 4 11.34 4 11 4 C11 5.98 11 7.96 11 10 C9 8 9 8 8 5 C6.35 5 4.7 5 3 5 C3 8.3 3 11.6 3 15 C2.01 15 1.02 15 0 15 C0.33 14.67 0.66 14.34 1 14 C1.16666667 10.5 1.16666667 10.5 1 7 C0.67 6.67 0.34 6.34 0 6 C0 4.02 0 2.04 0 0 Z " fill="#776048" transform="translate(27,8)"/>
<path d="M0 0 C0.33 0 0.66 0 1 0 C1 3.3 1 6.6 1 10 C1.99 10.33 2.98 10.66 4 11 C3.67 7.37 3.34 3.74 3 0 C3.66 0 4.32 0 5 0 C5.76173392 4.3164922 6.16063604 7.74433453 5 12 C4.01 12 3.02 12 2 12 C2 13.32 2 14.64 2 16 C-2.64849515 18.3992233 -6.91086074 18.19957409 -12 18 C-12 17.01 -12 16.02 -12 15 C-9.69 15 -7.38 15 -5 15 C-5 14.01 -5 13.02 -5 12 C-5.66 12 -6.32 12 -7 12 C-7 10.68 -7 9.36 -7 8 C-6.34 8 -5.68 8 -5 8 C-4.34 10.31 -3.68 12.62 -3 15 C-1.68 15 -0.36 15 1 15 C0.46375 14.195625 -0.0725 13.39125 -0.625 12.5625 C-2.45725994 7.81528105 -1.46242594 4.73447248 0 0 Z " fill="#543425" transform="translate(39,40)"/>
<path d="M0 0 C4.29 0 8.58 0 13 0 C13.33 2.31 13.66 4.62 14 7 C13.34 7 12.68 7 12 7 C11.01 11.95 10.02 16.9 9 22 C7.35 21.67 5.7 21.34 4 21 C4 20.34 4 19.68 4 19 C4.99 19 5.98 19 7 19 C7.12117188 18.35933594 7.24234375 17.71867187 7.3671875 17.05859375 C8.35679227 11.95071067 9.48510951 6.97749731 11 2 C9.68 1.67 8.36 1.34 7 1 C7.061875 2.423125 7.061875 2.423125 7.125 3.875 C7 7 7 7 5 9 C4.20046862 5.71303767 3.90341064 4.28976808 5 1 C3.35 1 1.7 1 0 1 C0 0.67 0 0.34 0 0 Z " fill="#543424" transform="translate(66,8)"/>
<path d="M0 0 C1.32 0.66 2.64 1.32 4 2 C4 4.64 4 7.28 4 10 C-0.62 10 -5.24 10 -10 10 C-10.33 9.01 -10.66 8.02 -11 7 C-7.04 7 -3.08 7 1 7 C-1.95664519 5.5216774 -4.74229737 5.93967217 -8 6 C-7.34 4.35 -6.68 2.7 -6 1 C-5.67 1.99 -5.34 2.98 -5 4 C-3.35 2.68 -1.7 1.36 0 0 Z " fill="#6D503E" transform="translate(55,19)"/>
<path d="M0 0 C13.2 0 26.4 0 40 0 C40 0.66 40 1.32 40 2 C30.1 2 20.2 2 10 2 C9.67 2.66 9.34 3.32 9 4 C9 3.34 9 2.68 9 2 C6.03 2 3.06 2 0 2 C0 1.34 0 0.68 0 0 Z " fill="#BFAE95" transform="translate(0,32)"/>
<path d="M0 0 C0.99 0.66 1.98 1.32 3 2 C3 2.66 3 3.32 3 4 C2.34 4 1.68 4 1 4 C1 7.96 1 11.92 1 16 C-3.62 16 -8.24 16 -13 16 C-13.33 15.34 -13.66 14.68 -14 14 C-8.70769231 11.78461538 -8.70769231 11.78461538 -5.125 12.875 C-4.42375 13.24625 -3.7225 13.6175 -3 14 C-2.95101562 13.40832031 -2.90203125 12.81664062 -2.8515625 12.20703125 C-2.43543133 7.80895528 -1.95034405 4.03071103 0 0 Z " fill="#D5BBA4" transform="translate(78,16)"/>
<path d="M0 0 C0.66 0 1.32 0 2 0 C2.33 0.99 2.66 1.98 3 3 C3.639375 2.814375 4.27875 2.62875 4.9375 2.4375 C5.618125 2.293125 6.29875 2.14875 7 2 C8 3 8 3 8 8 C4.04 8 0.08 8 -4 8 C-4 7.01 -4 6.02 -4 5 C-4.66 4.67 -5.32 4.34 -6 4 C-4.7934375 3.566875 -4.7934375 3.566875 -3.5625 3.125 C-0.8673532 2.26737432 -0.8673532 2.26737432 0 0 Z " fill="#9F8976" transform="translate(56,47)"/>
<path d="M0 0 C1.65 0 3.3 0 5 0 C5 1.98 5 3.96 5 6 C4.34 6 3.68 6 3 6 C3.66 9.96 4.32 13.92 5 18 C5.99 18 6.98 18 8 18 C8.33 16.02 8.66 14.04 9 12 C9.33 12 9.66 12 10 12 C10.125 17.75 10.125 17.75 9 20 C7.35 19.67 5.7 19.34 4 19 C3.49242138 17.58603098 2.99425075 16.16868271 2.5 14.75 C2.2215625 13.96109375 1.943125 13.1721875 1.65625 12.359375 C1 10 1 10 1 6 C0.34 5.67 -0.32 5.34 -1 5 C-0.34 5 0.32 5 1 5 C0.67 3.35 0.34 1.7 0 0 Z " fill="#6F5541" transform="translate(59,9)"/>
<path d="M0 0 C0.33 0.66 0.66 1.32 1 2 C3.31 2 5.62 2 8 2 C8 2.99 8 3.98 8 5 C7.34 5 6.68 5 6 5 C6 8.3 6 11.6 6 15 C5.67 15 5.34 15 5 15 C5 12.03 5 9.06 5 6 C4.34 6 3.68 6 3 6 C3 5.34 3 4.68 3 4 C2.34 4 1.68 4 1 4 C1.33 4.99 1.66 5.98 2 7 C2.12781786 9.67394964 2.04391871 12.32095857 2 15 C0.68 14.67 -0.64 14.34 -2 14 C-1.34 9.38 -0.68 4.76 0 0 Z " fill="#957F6A" transform="translate(41,36)"/>
<path d="M0 0 C0.33 0 0.66 0 1 0 C3.42133914 9.94665215 3.42133914 9.94665215 1.75 14.125 C-0.27092772 16.2902797 -1.20461777 16.9641073 -4.1640625 17.09765625 C-5.38222656 17.08025391 -5.38222656 17.08025391 -6.625 17.0625 C-7.85089844 17.04896484 -7.85089844 17.04896484 -9.1015625 17.03515625 C-9.72804688 17.02355469 -10.35453125 17.01195313 -11 17 C-11.33 16.01 -11.66 15.02 -12 14 C-11.28972656 13.93941406 -10.57945313 13.87882812 -9.84765625 13.81640625 C-8.92855469 13.73261719 -8.00945313 13.64882813 -7.0625 13.5625 C-6.14597656 13.48128906 -5.22945312 13.40007813 -4.28515625 13.31640625 C-2.03840268 13.23955024 -2.03840268 13.23955024 -1 12 C-0.9278635 9.73671744 -1.00351911 7.48995407 -1.0625 5.2265625 C-1 3 -1 3 0 0 Z " fill="#4F301F" transform="translate(24,41)"/>
<path d="M0 0 C0.66 0 1.32 0 2 0 C2 0.66 2 1.32 2 2 C2.61875 1.67 3.2375 1.34 3.875 1 C6 0 6 0 8 0 C8.33 2.64 8.66 5.28 9 8 C8.01 8.495 8.01 8.495 7 9 C6.195625 8.649375 5.39125 8.29875 4.5625 7.9375 C3.2940625 7.4734375 3.2940625 7.4734375 2 7 C1.01 7.66 0.02 8.32 -1 9 C-0.67 6.03 -0.34 3.06 0 0 Z " fill="#917C66" transform="translate(15,45)"/>
<path d="M0 0 C0.99 0.66 1.98 1.32 3 2 C3.22137393 4.62697064 3.28162025 7.00893964 3.1875 9.625 C3.17396484 10.33140625 3.16042969 11.0378125 3.14648438 11.765625 C3.1111104 13.51074128 3.05730221 15.25546608 3 17 C2.01 17.33 1.02 17.66 0 18 C-0.33 18.66 -0.66 19.32 -1 20 C-3.64 20 -6.28 20 -9 20 C-9 19.67 -9 19.34 -9 19 C-6.69 19 -4.38 19 -2 19 C-2 15.7 -2 12.4 -2 9 C-0.68 9 0.64 9 2 9 C1.34 6.03 0.68 3.06 0 0 Z " fill="#9A846F" transform="translate(37,10)"/>
<path d="M0 0 C8.19256018 -0.63019694 8.19256018 -0.63019694 11.5625 2 C12.036875 2.66 12.51125 3.32 13 4 C12.34 5.32 11.68 6.64 11 8 C10.01 7.01 9.02 6.02 8 5 C8 5.99 8 6.98 8 8 C7.01 8 6.02 8 5 8 C2 4.66666667 2 4.66666667 2 2 C1.34 2 0.68 2 0 2 C0 1.34 0 0.68 0 0 Z " fill="#7C654F" transform="translate(12,36)"/>
<path d="M0 0 C0.99 0 1.98 0 3 0 C3 6.93 3 13.86 3 21 C1.35 21 -0.3 21 -2 21 C-2 20.01 -2 19.02 -2 18 C-1.01 18 -0.02 18 1 18 C1 16.35 1 14.7 1 13 C0.01 12.67 -0.98 12.34 -2 12 C-1.01 12 -0.02 12 1 12 C0.67 8.04 0.34 4.08 0 0 Z " fill="#553625" transform="translate(105,37)"/>
<path d="M0 0 C0.33 0.99 0.66 1.98 1 3 C1.66 3 2.32 3 3 3 C3 3.66 3 4.32 3 5 C2.34 5 1.68 5 1 5 C1 5.99 1 6.98 1 8 C0.01 8 -0.98 8 -2 8 C-2.0825 8.61875 -2.165 9.2375 -2.25 9.875 C-3 12 -3 12 -5.0625 13.25 C-5.701875 13.4975 -6.34125 13.745 -7 14 C-7 12.68 -7 11.36 -7 10 C-6.01 10 -5.02 10 -4 10 C-4 9.01 -4 8.02 -4 7 C-4.99 7 -5.98 7 -7 7 C-7 5.68 -7 4.36 -7 3 C-5.68 3 -4.36 3 -3 3 C-3 3.99 -3 4.98 -3 6 C-2.34 5.67 -1.68 5.34 -1 5 C-0.34444881 2.47266765 -0.34444881 2.47266765 0 0 Z " fill="#462515" transform="translate(57,9)"/>
<path d="M0 0 C1.32 0.33 2.64 0.66 4 1 C4 3.64 4 6.28 4 9 C4.33 9 4.66 9 5 9 C5 10.65 5 12.3 5 14 C5.66 14 6.32 14 7 14 C7 14.99 7 15.98 7 17 C4.69 17 2.38 17 0 17 C0 16.01 0 15.02 0 14 C0.66 14 1.32 14 2 14 C2 10.37 2 6.74 2 3 C1.34 3 0.68 3 0 3 C0 2.01 0 1.02 0 0 Z " fill="#9C8872" transform="translate(67,38)"/>
<path d="M0 0 C0.99 0.33 1.98 0.66 3 1 C3.6875 3.0625 3.6875 3.0625 4 5 C3.34 5 2.68 5 2 5 C2 6.32 2 7.64 2 9 C0.68 9 -0.64 9 -2 9 C-2.103125 9.639375 -2.20625 10.27875 -2.3125 10.9375 C-2.539375 11.618125 -2.76625 12.29875 -3 13 C-3.99 13.33 -4.98 13.66 -6 14 C-6 13.01 -6 12.02 -6 11 C-5.01 11 -4.02 11 -3 11 C-3 9.68 -3 8.36 -3 7 C-3.99 7 -4.98 7 -6 7 C-6 6.01 -6 5.02 -6 4 C-5.01 4 -4.02 4 -3 4 C-3 4.66 -3 5.32 -3 6 C-2.01 6 -1.02 6 0 6 C0 4.02 0 2.04 0 0 Z " fill="#412112" transform="translate(64,37)"/>
<path d="M0 0 C2 2 2 2 2.125 5.125 C2.08375 6.07375 2.0425 7.0225 2 8 C0.68 8.33 -0.64 8.66 -2 9 C-2.103125 9.639375 -2.20625 10.27875 -2.3125 10.9375 C-2.539375 11.618125 -2.76625 12.29875 -3 13 C-3.99 13.33 -4.98 13.66 -6 14 C-6 13.01 -6 12.02 -6 11 C-5.34 11 -4.68 11 -4 11 C-4 9.68 -4 8.36 -4 7 C-4.99 7 -5.98 7 -7 7 C-7 6.01 -7 5.02 -7 4 C-5.68 4 -4.36 4 -3 4 C-3 4.66 -3 5.32 -3 6 C-2.01 6 -1.02 6 0 6 C0 4.02 0 2.04 0 0 Z " fill="#472416" transform="translate(79,37)"/>
<path d="M0 0 C0.99 0 1.98 0 3 0 C3 0.99 3 1.98 3 3 C2.01 3.33 1.02 3.66 0 4 C-1.20882096 6.00016466 -1.20882096 6.00016466 -2 8 C0.91634129 8.2502157 0.91634129 8.2502157 4 8 C4.66 7.01 5.32 6.02 6 5 C6 6.65 6 8.3 6 10 C2.04 10 -1.92 10 -6 10 C-6 9.34 -6 8.68 -6 8 C-5.34 7.67 -4.68 7.34 -4 7 C-3.34444881 4.47266765 -3.34444881 4.47266765 -3 2 C-2.34 2 -1.68 2 -1 2 C-0.67 1.34 -0.34 0.68 0 0 Z " fill="#A08B75" transform="translate(50,16)"/>
<path d="M0 0 C1.65 0.33 3.3 0.66 5 1 C4.01 4.63 3.02 8.26 2 12 C0.68 12 -0.64 12 -2 12 C-1.34 8.04 -0.68 4.08 0 0 Z " fill="#97816C" transform="translate(73,9)"/>
<path d="M0 0 C1.98 0.495 1.98 0.495 4 1 C4.33 2.65 4.66 4.3 5 6 C4.01 6 3.02 6 2 6 C1.67 8.97 1.34 11.94 1 15 C0.34 15 -0.32 15 -1 15 C-1.02715383 13.25008666 -1.04646551 11.50005055 -1.0625 9.75 C-1.07410156 8.77546875 -1.08570313 7.8009375 -1.09765625 6.796875 C-1.01195577 4.34241322 -0.70706066 2.33831086 0 0 Z " fill="#583828" transform="translate(49,37)"/>
<path d="M0 0 C0.66 0 1.32 0 2 0 C3.29243536 4.1196377 4.26252625 7.66831683 4 12 C3.34 12 2.68 12 2 12 C1.67 12.66 1.34 13.32 1 14 C1 11.36 1 8.72 1 6 C-0.32 5.34 -1.64 4.68 -3 4 C-3 3.34 -3 2.68 -3 2 C-2.01 2 -1.02 2 0 2 C0 1.34 0 0.68 0 0 Z " fill="#D9C1A8" transform="translate(58,15)"/>
<path d="M0 0 C0.66 0 1.32 0 2 0 C2.1953125 6.0546875 2.1953125 6.0546875 2 8 C0 10 0 10 -1.9453125 10.1953125 C-3.96354167 10.13020833 -5.98177083 10.06510417 -8 10 C-8 9.34 -8 8.68 -8 8 C-5.36 7.34 -2.72 6.68 0 6 C0 4.02 0 2.04 0 0 Z " fill="#523323" transform="translate(90,48)"/>
<path d="M0 0 C0.33 0 0.66 0 1 0 C1 3.3 1 6.6 1 10 C1.99 10.33 2.98 10.66 4 11 C3.67 7.37 3.34 3.74 3 0 C3.66 0 4.32 0 5 0 C5.76173392 4.3164922 6.16063604 7.74433453 5 12 C4.01 12 3.02 12 2 12 C1.67 12.99 1.34 13.98 1 15 C-0.89241536 12.16137697 -2.10911299 10.06515061 -1.75390625 6.59765625 C-1.24330976 4.36863845 -0.67479296 2.18458153 0 0 Z " fill="#6E5440" transform="translate(39,40)"/>
<path d="M0 0 C0.66 0.66 1.32 1.32 2 2 C3.31747324 2.69748583 4.64914193 3.36959957 6 4 C2.77786243 6.14809171 1.72224599 6.29386153 -2 6 C-2.33 5.67 -2.66 5.34 -3 5 C-5.34987262 4.76472227 -7.70556039 4.58613583 -10.0625 4.4375 C-11.99802734 4.31181641 -11.99802734 4.31181641 -13.97265625 4.18359375 C-15.47119141 4.09271484 -15.47119141 4.09271484 -17 4 C-17 3.67 -17 3.34 -17 3 C-12.05 3 -7.1 3 -2 3 C-2 2.34 -2 1.68 -2 1 C-1.34 0.67 -0.68 0.34 0 0 Z " fill="#C2A78D" transform="translate(62,26)"/>
<path d="M0 0 C3.96 0 7.92 0 12 0 C12 1.65 12 3.3 12 5 C11.01 5 10.02 5 9 5 C9 4.34 9 3.68 9 3 C7.68 3 6.36 3 5 3 C4.67 3.99 4.34 4.98 4 6 C3.67 4.68 3.34 3.36 3 2 C2.01 2 1.02 2 0 2 C0 1.34 0 0.68 0 0 Z " fill="#99836E" transform="translate(52,38)"/>
<path d="M0 0 C6.625 -0.125 6.625 -0.125 10 1 C10 1.66 10 2.32 10 3 C5.545 3.495 5.545 3.495 1 4 C1 6.97 1 9.94 1 13 C0.67 13 0.34 13 0 13 C-0.19551338 11.39679026 -0.38111983 9.79237014 -0.5625 8.1875 C-0.71912109 6.84751953 -0.71912109 6.84751953 -0.87890625 5.48046875 C-1 3 -1 3 0 0 Z " fill="#E6CFB3" transform="translate(91,4)"/>
<path d="M0 0 C2.5 1.8125 2.5 1.8125 5 4 C5 4.99 5 5.98 5 7 C4.01 6.67 3.02 6.34 2 6 C1.67 7.32 1.34 8.64 1 10 C2.98 10 4.96 10 7 10 C7 10.33 7 10.66 7 11 C4.36 11.33 1.72 11.66 -1 12 C-1 9.36 -1 6.72 -1 4 C-0.34 4 0.32 4 1 4 C0.67 2.68 0.34 1.36 0 0 Z " fill="#725944" transform="translate(80,16)"/>
<path d="M0 0 C3.63 0 7.26 0 11 0 C11 1.98 11 3.96 11 6 C10.34 6 9.68 6 9 6 C9 5.01 9 4.02 9 3 C7.35 3.33 5.7 3.66 4 4 C4 3.34 4 2.68 4 2 C2.68 2.33 1.36 2.66 0 3 C0 2.01 0 1.02 0 0 Z " fill="#9E8773" transform="translate(45,9)"/>
<path d="M0 0 C0.66 0.33 1.32 0.66 2 1 C4.38056989 8.64288227 4.38056989 8.64288227 3 13 C0.69 13 -1.62 13 -4 13 C-4 12.34 -4 11.68 -4 11 C-2.02 11 -0.04 11 2 11 C1.67 10.484375 1.34 9.96875 1 9.4375 C-0.32010877 6.21973488 -0.13242105 3.4429472 0 0 Z " fill="#4D2E1E" transform="translate(32,16)"/>
<path d="M0 0 C2.475 0.495 2.475 0.495 5 1 C5.02696365 2.79158489 5.04637917 4.58328473 5.0625 6.375 C5.07410156 7.37273438 5.08570312 8.37046875 5.09765625 9.3984375 C5 12 5 12 4 14 C3.01 13.67 2.02 13.34 1 13 C1.66 13 2.32 13 3 13 C3 9.37 3 5.74 3 2 C2.34 2 1.68 2 1 2 C0.67 2.99 0.34 3.98 0 5 C0 3.35 0 1.7 0 0 Z " fill="#5B3F2D" transform="translate(94,36)"/>
<path d="M0 0 C0 0.66 0 1.32 0 2 C-1.65 2.66 -3.3 3.32 -5 4 C-5.33 3.67 -5.66 3.34 -6 3 C-7.51469448 2.76807135 -9.03754562 2.58784762 -10.5625 2.4375 C-11.38878906 2.35371094 -12.21507813 2.26992187 -13.06640625 2.18359375 C-13.70449219 2.12300781 -14.34257813 2.06242188 -15 2 C-15 1.67 -15 1.34 -15 1 C-13.44033408 0.63355422 -11.87707349 0.28239138 -10.3125 -0.0625 C-9.44238281 -0.25972656 -8.57226562 -0.45695313 -7.67578125 -0.66015625 C-4.83998724 -1.02032279 -2.75210018 -0.70909969 0 0 Z " fill="#E2CBAE" transform="translate(84,5)"/>
<path d="M0 0 C0.66 0 1.32 0 2 0 C2.33 0.99 2.66 1.98 3 3 C3.99 2.67 4.98 2.34 6 2 C5.67 2.99 5.34 3.98 5 5 C3.0085944 5.38133299 1.00720923 5.71325582 -1 6 C-1.33 5.67 -1.66 5.34 -2 5 C-2.99 6.485 -2.99 6.485 -4 8 C-4 7.01 -4 6.02 -4 5 C-4.66 4.67 -5.32 4.34 -6 4 C-4.7934375 3.566875 -4.7934375 3.566875 -3.5625 3.125 C-0.8673532 2.26737432 -0.8673532 2.26737432 0 0 Z " fill="#826A57" transform="translate(56,47)"/>
<path d="M0 0 C0.33 0 0.66 0 1 0 C1 6.6 1 13.2 1 20 C0.34 19.67 -0.32 19.34 -1 19 C-1.4140625 16.93359375 -1.4140625 16.93359375 -1.625 14.4375 C-1.69976562 13.61121094 -1.77453125 12.78492188 -1.8515625 11.93359375 C-1.90054688 11.29550781 -1.94953125 10.65742187 -2 10 C-1.34 10 -0.68 10 0 10 C0 6.7 0 3.4 0 0 Z " fill="#C4AC97" transform="translate(93,36)"/>
<path d="M0 0 C2.475 0.99 2.475 0.99 5 2 C4.8125 3.8125 4.8125 3.8125 4 6 C1.4375 7.75 1.4375 7.75 -1 9 C-1.08886184 5.80097361 -0.91058531 3.07322544 0 0 Z " fill="#7B6751" transform="translate(30,39)"/>
<path d="M0 0 C2.31 0 4.62 0 7 0 C6.67 5.94 6.34 11.88 6 18 C5.67 18 5.34 18 5 18 C4.67 13.05 4.34 8.1 4 3 C3.01 3 2.02 3 1 3 C0.67 2.01 0.34 1.02 0 0 Z " fill="#876E5C" transform="translate(35,9)"/>
<path d="M0 0 C0.33 0 0.66 0 1 0 C1.09765625 6.15234375 1.09765625 6.15234375 1 8 C0 9 0 9 -2.06640625 9.09765625 C-2.89011719 9.08605469 -3.71382813 9.07445312 -4.5625 9.0625 C-5.38878906 9.05347656 -6.21507813 9.04445313 -7.06640625 9.03515625 C-7.70449219 9.02355469 -8.34257813 9.01195312 -9 9 C-9 8.34 -9 7.68 -9 7 C-5.535 6.505 -5.535 6.505 -2 6 C-1.34 4.02 -0.68 2.04 0 0 Z " fill="#442311" transform="translate(89,20)"/>
<path d="M0 0 C0 0.33 0 0.66 0 1 C-4.62 1 -9.24 1 -14 1 C-14.33 0.34 -14.66 -0.32 -15 -1 C-9.82993781 -4.27437272 -5.2857582 -1.90903112 0 0 Z " fill="#E4CBB2" transform="translate(79,31)"/>
<path d="M0 0 C2 0 2 0 3.625 1.25 C5 3 5 3 5 7 C4.38125 7.144375 3.7625 7.28875 3.125 7.4375 C0.96741678 7.93152225 0.96741678 7.93152225 -1 9 C-0.67 6.03 -0.34 3.06 0 0 Z " fill="#765F49" transform="translate(15,45)"/>
<path d="M0 0 C0.66 0 1.32 0 2 0 C2 2.97 2 5.94 2 9 C1.01 9 0.02 9 -1 9 C-1.09765625 2.84765625 -1.09765625 2.84765625 -1 1 C-0.67 0.67 -0.34 0.34 0 0 Z " fill="#DABFAB" transform="translate(51,42)"/>
<path d="M0 0 C0.66 0 1.32 0 2 0 C2 2.31 2 4.62 2 7 C0.35 7 -1.3 7 -3 7 C-3.33 6.01 -3.66 5.02 -4 4 C-2.68 4 -1.36 4 0 4 C0 2.68 0 1.36 0 0 Z " fill="#5D3C2C" transform="translate(98,51)"/>
<path d="M0 0 C2 0 2 0 3.5 1.375 C3.995 1.91125 4.49 2.4475 5 3 C5.66 3.66 6.32 4.32 7 5 C6 6 6 6 2.9375 6.0625 C1.4834375 6.0315625 1.4834375 6.0315625 0 6 C0 4.02 0 2.04 0 0 Z " fill="#9D8874" transform="translate(82,49)"/>
<path d="M0 0 C1.65 0 3.3 0 5 0 C4.67 2.31 4.34 4.62 4 7 C3.01 6.67 2.02 6.34 1 6 C0.67 4.02 0.34 2.04 0 0 Z " fill="#99856F" transform="translate(66,9)"/>
<path d="M0 0 C0.33 0.66 0.66 1.32 1 2 C3.52733235 2.65555119 3.52733235 2.65555119 6 3 C6 3.66 6 4.32 6 5 C3.03 5 0.06 5 -3 5 C-2.67 4.01 -2.34 3.02 -2 2 C-1.67 2.33 -1.34 2.66 -1 3 C-0.67 2.01 -0.34 1.02 0 0 Z " fill="#9F8874" transform="translate(16,50)"/>
<path d="M0 0 C1.04449911 3.13349732 0.93423645 3.98968256 0 7 C-1.32 7 -2.64 7 -4 7 C-4 5.02 -4 3.04 -4 1 C-2.68 1.33 -1.36 1.66 0 2 C0 1.34 0 0.68 0 0 Z " fill="#896C59" transform="translate(98,48)"/>
<path d="M0 0 C0.66 0.33 1.32 0.66 2 1 C2.05429959 2.74965358 2.09292823 4.49979787 2.125 6.25 C2.14820313 7.22453125 2.17140625 8.1990625 2.1953125 9.203125 C1.99862781 12.0196498 1.44568916 13.60949036 0 16 C-0.33 16 -0.66 16 -1 16 C-1.042721 14.33388095 -1.04063832 12.66617115 -1 11 C-0.67 10.67 -0.34 10.34 0 10 C0.07205511 8.31391034 0.08386068 6.62499341 0.0625 4.9375 C0.05347656 4.01839844 0.04445313 3.09929688 0.03515625 2.15234375 C0.02355469 1.44207031 0.01195312 0.73179688 0 0 Z " fill="#7D674F" transform="translate(12,40)"/>
<path d="M0 0 C0.99 0.33 1.98 0.66 3 1 C3.6875 3.0625 3.6875 3.0625 4 5 C3.34 5 2.68 5 2 5 C2 6.32 2 7.64 2 9 C1.01 8.67 0.02 8.34 -1 8 C-1.33 7.34 -1.66 6.68 -2 6 C-1.34 6 -0.68 6 0 6 C0 4.02 0 2.04 0 0 Z " fill="#563527" transform="translate(64,37)"/>
<path d="M0 0 C0.99 0.33 1.98 0.66 3 1 C2.34 2.98 1.68 4.96 1 7 C0.01 7 -0.98 7 -2 7 C-2.6875 5.1875 -2.6875 5.1875 -3 3 C-1.5625 1.25 -1.5625 1.25 0 0 Z " fill="#917A65" transform="translate(66,20)"/>
<path d="M0 0 C0.33 0.66 0.66 1.32 1 2 C2.65 1.67 4.3 1.34 6 1 C6 1.99 6 2.98 6 4 C3.36 4 0.72 4 -2 4 C-2 3.01 -2 2.02 -2 1 C-1.34 0.67 -0.68 0.34 0 0 Z " fill="#9D8371" transform="translate(44,51)"/>
<path d="M0 0 C0.66 0 1.32 0 2 0 C2 2.64 2 5.28 2 8 C0 8 0 8 -1.625 6.625 C-3 5 -3 5 -3 3 C-2.01 3 -1.02 3 0 3 C0 2.01 0 1.02 0 0 Z " fill="#D4BAA6" transform="translate(66,43)"/>
<path d="M0 0 C1.98 0 3.96 0 6 0 C6 1.65 6 3.3 6 5 C5.34 5 4.68 5 4 5 C4 4.01 4 3.02 4 2 C3.01 2.33 2.02 2.66 1 3 C1 3.66 1 4.32 1 5 C0.34 5 -0.32 5 -1 5 C-0.67 3.35 -0.34 1.7 0 0 Z " fill="#A48B76" transform="translate(83,38)"/>
<path d="M0 0 C0.33 0 0.66 0 1 0 C1.19412181 1.47831221 1.38012131 2.95769316 1.5625 4.4375 C1.66691406 5.26121094 1.77132812 6.08492187 1.87890625 6.93359375 C1.91886719 7.61550781 1.95882812 8.29742187 2 9 C1 10 1 10 -1.28515625 10.09765625 C-2.65994141 10.08025391 -2.65994141 10.08025391 -4.0625 10.0625 C-4.98160156 10.05347656 -5.90070313 10.04445313 -6.84765625 10.03515625 C-7.55792969 10.02355469 -8.26820312 10.01195312 -9 10 C-9 9.67 -9 9.34 -9 9 C-6.36 8.67 -3.72 8.34 -1 8 C-0.67 5.36 -0.34 2.72 0 0 Z " fill="#B1947E" transform="translate(90,20)"/>
<path d="M0 0 C0.66 0 1.32 0 2 0 C2 2.64 2 5.28 2 8 C0.68 7.67 -0.64 7.34 -2 7 C-1.34 4.69 -0.68 2.38 0 0 Z " fill="#D7BCA9" transform="translate(41,43)"/>
<path d="M0 0 C2.64 0 5.28 0 8 0 C8 0.99 8 1.98 8 3 C5.69 3 3.38 3 1 3 C0.67 2.01 0.34 1.02 0 0 Z " fill="#E2CBAF" transform="translate(26,4)"/>
<path d="M0 0 C0.33 0 0.66 0 1 0 C1.06058594 0.62648437 1.12117188 1.25296875 1.18359375 1.8984375 C1.26738281 2.71570312 1.35117188 3.53296875 1.4375 4.375 C1.51871094 5.18710937 1.59992188 5.99921875 1.68359375 6.8359375 C1.89090114 9.04272805 1.89090114 9.04272805 3 11 C1.0625 10.3125 1.0625 10.3125 -1 9 C-2.08835706 6.04588797 -2.25203613 4.62168913 -1.0625 1.6875 C-0.711875 1.130625 -0.36125 0.57375 0 0 Z " fill="#D5BDA4" transform="translate(80,48)"/>
<path d="M0 0 C0.66 0 1.32 0 2 0 C2.33 2.31 2.66 4.62 3 7 C2.01 7 1.02 7 0 7 C-0.38133299 5.0085944 -0.71325582 3.00720923 -1 1 C-0.67 0.67 -0.34 0.34 0 0 Z " fill="#908069" transform="translate(47,11)"/>
<path d="M0 0 C4 0 4 0 7 1 C6.67 2.32 6.34 3.64 6 5 C4.02 4.34 2.04 3.68 0 3 C0 2.01 0 1.02 0 0 Z " fill="#846B57" transform="translate(66,14)"/>
<path d="M0 0 C1.65 0 3.3 0 5 0 C4.42655063 2.86724686 4.1385485 3.8614515 2 6 C0 3 0 3 0 0 Z " fill="#9A8771" transform="translate(59,9)"/>
<path d="M0 0 C0.33 0 0.66 0 1 0 C1 2.31 1 4.62 1 7 C0.01 7.495 0.01 7.495 -1 8 C-3 6.625 -3 6.625 -5 5 C-5 4.34 -5 3.68 -5 3 C-4.34 3 -3.68 3 -3 3 C-3 3.66 -3 4.32 -3 5 C-2.01 5 -1.02 5 0 5 C0 3.35 0 1.7 0 0 Z " fill="#402413" transform="translate(90,38)"/>
<path d="M0 0 C2.97 0 5.94 0 9 0 C8.67 0.66 8.34 1.32 8 2 C6.68 2 5.36 2 4 2 C4 2.99 4 3.98 4 5 C3.34 5 2.68 5 2 5 C1.34 3.35 0.68 1.7 0 0 Z " fill="#98846C" transform="translate(27,38)"/>
<path d="M0 0 C1.32 0 2.64 0 4 0 C4 2.31 4 4.62 4 7 C3.67 6.01 3.34 5.02 3 4 C2.01 4 1.02 4 0 4 C0 2.68 0 1.36 0 0 Z " fill="#543523" transform="translate(50,12)"/>
<path d="M0 0 C0.66 0.33 1.32 0.66 2 1 C2 2.98 2 4.96 2 7 C1.01 6.67 0.02 6.34 -1 6 C-1.33 4.35 -1.66 2.7 -2 1 C-1.34 0.67 -0.68 0.34 0 0 Z " fill="#977F6C" transform="translate(88,47)"/>
<path d="M0 0 C1.98 0 3.96 0 6 0 C6 1.65 6 3.3 6 5 C5.34 5 4.68 5 4 5 C4 4.01 4 3.02 4 2 C2.68 2 1.36 2 0 2 C0 1.34 0 0.68 0 0 Z " fill="#A08D76" transform="translate(72,38)"/>
<path d="M0 0 C2 2 2 2 2 6 C0.35 5.67 -1.3 5.34 -3 5 C-3 4.34 -3 3.68 -3 3 C-2.01 3 -1.02 3 0 3 C0 2.01 0 1.02 0 0 Z " fill="#5C3F2C" transform="translate(73,24)"/>
<path d="M0 0 C0.66 0.33 1.32 0.66 2 1 C2 2.65 2 4.3 2 6 C1.34 6 0.68 6 0 6 C-0.33 6.66 -0.66 7.32 -1 8 C-1.93065133 5.39417629 -2.14917407 4.35801776 -1.0625 1.75 C-0.711875 1.1725 -0.36125 0.595 0 0 Z " fill="#543528" transform="translate(78,9)"/>
<path d="M0 0 C0.33 0 0.66 0 1 0 C1.25 7.625 1.25 7.625 -1 11 C-2.26264601 6.70700357 -1.62950412 4.12168689 0 0 Z " fill="#4A2918" transform="translate(39,40)"/>
<path d="M0 0 C1.32 0 2.64 0 4 0 C4 0.66 4 1.32 4 2 C4.66 2.33 5.32 2.66 6 3 C5.34 3 4.68 3 4 3 C3.67 3.99 3.34 4.98 3 6 C3 5.01 3 4.02 3 3 C2.01 3 1.02 3 0 3 C0 2.01 0 1.02 0 0 Z " fill="#513020" transform="translate(72,41)"/>
<path d="M0 0 C1.65 0 3.3 0 5 0 C4.34 0.66 3.68 1.32 3 2 C2.29289322 3.64991582 1.62056011 5.31562256 1 7 C0.67 7 0.34 7 0 7 C0 4.69 0 2.38 0 0 Z " fill="#87705D" transform="translate(102,36)"/>
</svg>
